<svg xmlns="http://www.w3.org/2000/svg" viewBox="0 0 100 100"><rect width="100" height="100" rx="22" fill="#111111"/><path d="M322 503Q322 321 402.5 218.0Q483 115 623 115Q726 115 803.5 159.5Q881 204 907 281L1065 236Q1021 112 903.5 46.0Q786 -20 623 -20Q387 -20 260.0 127.0Q133 274 133 548Q133 815 257.5 958.5Q382 1102 617 1102Q852 1102 973.0 959.0Q1094 816 1094 527V503ZM619 969Q485 969 407.0 881.5Q329 794 324 641H908Q880 969 619 969ZM2319 546Q2319 -20 1927 -20Q1681 -20 1596 164H1591Q1595 156 1595 -2V-425H1414V858Q1414 1028 1408 1082H1583Q1584 1078 1586.0 1052.5Q1588 1027 1590.5 977.5Q1593 928 1593 904H1597Q1647 1009 1724.5 1056.5Q1802 1104 1927 1104Q2125 1104 2222.0 967.5Q2319 831 2319 546ZM2133 546Q2133 772 2072.0 868.5Q2011 965 1880 965Q1729 965 1662.0 855.5Q1595 746 1595 524Q1595 311 1662.0 212.0Q1729 113 1878 113Q2011 113 2072.0 214.0Q2133 315 2133 546ZM3293 147 3574 142V0L3204 4Q3091 24 3039 94Q3017 124 3014 258V1342H2725V1484H3194V237Q3195 192 3219 170Q3240 151 3293 147ZM3297 142ZM3194 237ZM3210 0ZM3014 142V258Z" transform="translate(50,50) scale(0.01918,-0.01918) translate(-1853.50,-529.50)" fill="#ffffff"/></svg>